Coordinates
version=1
nRows=19
nColumns=24
inDegrees=yes

Units are S.I. units (second, meters, Newtons, ...)
Angles are in degrees.

endheader
time	pelvis_tilt	pelvis_list	pelvis_rotation	pelvis_tx	pelvis_ty	pelvis_tz	hip_flexion_r	hip_adduction_r	hip_rotation_r	knee_angle_r	ankle_angle_r	subtalar_angle_r	mtp_angle_r	hip_flexion_l	hip_adduction_l	hip_rotation_l	knee_angle_l	ankle_angle_l	subtalar_angle_l	mtp_angle_l	lumbar_extension	lumbar_bending	lumbar_rotation
      1.92000000	     13.70571944	     -1.47225399	      2.70124540	     -0.03964988	      0.93812456	      0.28722263	    -23.39951291	      4.97831268	      3.15499166	     -4.42847241	     21.13029932	      1.85998085	     17.27989709	     15.68565212	     -2.85765139	    -10.15785688	    -34.70640580	     19.35932380	      2.46289540	     39.56384621	    -29.69900217	      3.92297592	      5.36556815
      1.92500000	     13.97779699	     -1.21938394	      2.39042168	     -0.03286099	      0.93785537	      0.28698045	    -24.24428066	      4.57038780	      3.23628198	     -4.28647804	     21.40044135	      2.14481165	     17.10035019	     14.95377307	     -2.51848213	    -10.69124062	    -31.89937527	     18.85524727	      2.81729162	     39.38961533	    -29.98594719	      3.48801260	      5.65745290
      1.93000000	     14.24944790	     -0.99604790	      2.15760424	     -0.02612553	      0.93748489	      0.28660630	    -25.05389767	      4.21342291	      3.23133069	     -4.20287929	     21.72247212	      2.53635096	     17.02832790	     14.24834435	     -2.18677693	    -11.09866834	    -29.16423362	     18.30630554	      3.35387671	     39.08371627	    -30.26488839	      3.12283677	      5.83086118
      1.93500000	     14.44820105	     -0.85314898	      1.87844745	     -0.01944924	      0.93695477	      0.28622930	    -25.78516035	      3.90776864	      3.31085268	     -4.10131228	     22.02785626	      2.86987842	     16.99971727	     13.61569884	     -1.91967315	    -11.48974994	    -26.43258645	     17.61770326	      3.70548298	     38.82163033	    -30.47987860	      2.82344064	      6.09385991
      1.94000000	     14.67420021	     -0.71234148	      1.70791160	     -0.01262674	      0.93642320	      0.28574255	    -26.57713563	      3.66186433	      3.32063957	     -3.96461039	     22.22223924	      3.02514563	     16.96656061	     12.96453365	     -1.64215890	    -11.79233340	    -23.76452112	     16.95676994	      4.27956208	     38.58764804	    -30.70238529	      2.57525200	      6.22311695
      1.94500000	     14.79082994	     -0.62560997	      1.63616689	     -0.00574378	      0.93560892	      0.28512262	    -27.24490028	      3.51353239	      3.17143607	     -3.85180886	     22.45224489	      3.28202050	     16.99802836	     12.47717553	     -1.39069813	    -11.95965121	    -21.23199195	     16.29651680	      4.84847472	     38.33177079	    -30.79324123	      2.42294356	      6.34877192
      1.95000000	     14.79510451	     -0.66820019	      1.62124245	      0.00093475	      0.93453142	      0.28444843	    -27.70917090	      3.52321434	      3.04469769	     -3.86265036	     22.68149209	      3.48629886	     17.05077690	     12.19019831	     -1.27175114	    -12.00494040	    -18.88218443	     15.64929398	      5.36679047	     38.11588223	    -30.78650023	      2.41766326	      6.45703244
      1.95500000	     14.81361924	     -0.72470206	      1.58458032	      0.00768831	      0.93348336	      0.28387848	    -28.22115562	      3.54122045	      3.02165369	     -3.81984664	     22.85267389	      3.56957301	     17.12267776	     11.88044982	     -1.18504504	    -12.12660330	    -16.61868071	     15.03862561	      5.96960689	     37.95839434	    -30.79351681	      2.39606929	      6.63702646
      1.96000000	     14.82954320	     -0.75542757	      1.55297343	      0.01441522	      0.93238606	      0.28319063	    -28.69307794	      3.52046115	      2.87833226	     -3.84274768	     23.07447661	      3.84805688	     17.22804553	     11.57444047	     -1.04868866	    -12.17041502	    -14.45701560	     14.51437529	      6.48635567	     37.86517902	    -30.79831093	      2.38121346	      6.79971292
      1.96500000	     14.84821030	     -0.81291004	      1.56297314	      0.02113732	      0.93128185	      0.28247420	    -29.18822881	      3.55235458	      2.81570204	     -3.82893288	     23.23516453	      3.95651924	     17.34625671	     11.29940778	     -0.94031828	    -12.13535444	    -12.46566352	     14.11129685	      6.94652586	     37.75848065	    -30.79960431	      2.39757230	      6.84670042
      1.97000000	     14.81909315	     -0.89701017	      1.60259967	      0.02778924	      0.93009950	      0.28159703	    -29.55773899	      3.61006649	      2.61612903	     -3.95647615	     23.44072367	      4.25461686	     17.53843193	     11.08502391	     -0.84231210	    -12.03560239	    -10.60429416	     13.82145820	      7.44285197	     37.73582897	    -30.74523906	      2.45362170	      6.89813224
      1.97500000	     14.70947474	     -1.05475335	      1.85351954	      0.03438275	      0.92868855	      0.28038279	    -29.81580493	      3.84231737	      2.19106123	     -4.13333659	     23.63946570	      4.56625161	     17.73551313	     11.08281092	     -0.79308421	    -11.71609747	     -9.09637652	     13.72274878	      8.02048733	     37.71615369	    -30.61986785	      2.71521459	      6.84712968
      1.98000000	     14.54159591	     -1.19904444	      2.08539071	      0.04110923	      0.92720182	      0.27916666	    -30.01006379	      4.04547038	      1.79306512	     -4.32719658	     23.82346723	      4.88887351	     17.95302812	     11.18029953	     -0.74231534	    -11.48706767	     -7.83494210	     13.76992744	      8.57358653	     37.68037246	    -30.40733204	      2.94938922	      6.76390841
      1.98500000	     14.36035834	     -1.34307390	      2.33312094	      0.04775012	      0.92569393	      0.27794716	    -30.19645907	      4.25181471	      1.46855662	     -4.49391082	     24.00622512	      5.14603747	     18.22940427	     11.33505659	     -0.70167201	    -11.20204676	     -6.80761491	     13.82033082	      9.15845464	     37.63225257	    -30.18163455	      3.17742785	      6.75792378
      1.99000000	     14.15840592	     -1.54000400	      2.52036203	      0.05448871	      0.92424625	      0.27685154	    -30.31587881	      4.48339654	      1.22488129	     -4.75389983	     24.11081650	      5.34752721	     18.46963049	     11.57971971	     -0.75762022	    -11.15448850	     -6.10229650	     13.97990446	      9.90005847	     37.64626454	    -29.93051564	      3.42457895	      6.74083389
      1.99500000	     13.98771634	     -1.73322757	      2.70237939	      0.06115653	      0.92281598	      0.27573712	    -30.43618002	      4.70229869	      1.06772473	     -5.04597751	     24.23653545	      5.53669579	     18.78526458	     11.83668353	     -0.83299412	    -11.08557763	     -5.66579837	     14.25032552	     10.61082535	     37.63807736	    -29.72719429	      3.67025258	      6.72787276
      2.00000000	     13.68946113	     -2.01106199	      2.85473352	      0.06773118	      0.92121364	      0.27470305	    -30.38685420	      4.98406416	      1.05715193	     -5.36352390	     24.21139948	      5.55317682	     20.21844518	     12.36196831	     -1.02696267	    -11.04323465	     -5.65305489	     14.47069210	     11.29935759	     37.32200011	    -29.38327109	      3.97752149	      6.86530466
      2.00500000	     13.58630347	     -2.07349617	      2.99769094	      0.07489453	      0.91993657	      0.27365217	    -30.64417892	      5.05936414	      0.83373065	     -5.60606473	     24.28603658	      5.79049780	     20.51323076	     12.60616144	     -1.00921890	    -11.04795142	     -5.80091289	     14.64990229	     11.84079043	     37.32020727	    -29.21246332	      4.05903729	      6.72245367
      2.01000000	     13.51391790	     -2.18149052	      3.09983816	      0.08217610	      0.91878558	      0.27281403	    -30.84107048	      5.16616006	      0.58077676	     -6.04960846	     24.37366933	      6.12287388	     20.83454948	     12.80700999	     -1.07171396	    -10.86104490	     -6.12074023	     14.81902318	     12.21049763	     37.30238423	    -29.06087236	      4.15914618	      6.65919691
